<svg xmlns="http://www.w3.org/2000/svg" height="444" width="512"><rect id="backgroundrect" width="100%" height="100%" x="0" y="0" fill="none" stroke="none" class="" style=""/><g class="currentLayer" style=""><title>Layer 1</title><path d="m276.2422203145723,142.61909164156341 c-3.882813,1.4414060000000002 -5.8671880000000005,5.757812 -4.425782,9.644531 c0,0 32.195313,86.832031 32.207032,86.867187 c12.8125,34.558594 52.8125,52.910157 87.359374,40.101563 c35.136719,-13.027344 53.125,-52.214844 40.097657,-87.355469 c0,0 -32.207031,-86.867187 -32.207031,-86.871094 c-1.378907,-3.714843 -5.746094,-5.871093 -9.644532,-4.425781 l-26.222656,9.722657 c-3.8867190000000003,1.4414060000000002 -5.8671880000000005,5.757812 -4.425781,9.644531 c1.4375,3.8867190000000003 5.753906,5.867187 9.640625,4.425781 l19.191406,-7.113281 l29.597656,79.835937 c10.152344,27.378906 -3.863281,57.917969 -31.246094,68.070313 c-27.382812,10.148437 -57.917968,-3.867188 -68.070312,-31.25 l-29.597656,-79.832031 l52.285156,-19.386719 c3.8867190000000003,-1.441407 5.8671880000000005,-5.7578130000000005 4.425781,-9.644531 c-1.4414060000000002,-3.882813 -5.753906,-5.8671880000000005 -9.640625,-4.425782 zm0,0 " id="svg_1" class="" fill="#596b78" fill-opacity="1"/><path d="m318.8984703145723,193.95112264156342 c-3.8867190000000003,1.4375 -5.8671880000000005,5.7578130000000005 -4.4296880000000005,9.640625 c0,0 2.410156,6.496094 2.414062,6.503906 c1.402344,3.7851559999999997 5.855469,5.828125 9.640626000000001,4.425782 c3.886718,-1.441407 5.867187,-5.7578130000000005 4.425781,-9.644532 l-2.410157,-6.5 c-1.4414060000000002,-3.886718 -5.757812,-5.867187 -9.640624,-4.425781 zm0,0 " id="svg_2" class="" fill="#596b78" fill-opacity="1"/><path d="m388.7344073145723,183.45502864156342 c1.417969,3.8242190000000003 5.828125,5.839844 9.644531,4.425781 c3.882813,-1.4414060000000002 5.8671880000000005,-5.757812 4.425782,-9.644531 l-2.410157,-6.5 c-1.4414060000000002,-3.8867190000000003 -5.757812,-5.867187 -9.644531,-4.425781 c-3.8867190000000003,1.4375 -5.8671880000000005,5.757812 -4.425781,9.640625 c0,0 2.40625,6.496094 2.410156,6.503906 zm0,0 " id="svg_3" class="" fill="#596b78" fill-opacity="1"/><path d="m344.21487631457234,193.41987264156342 c-1.9765629999999998,3.644531 -0.6289060000000001,8.199219 3.011718,10.175781 c5.046876,2.738282 11.148438,3.0625 16.511719,1.078125 c5.484375,-2.035156 9.792969,-6.253906 11.816407,-11.582031 c1.472656,-3.8710940000000003 -0.472657,-8.207031 -4.347657,-9.679688 c-3.871093,-1.472656 -8.207031,0.476563 -9.679687,4.347657 c-0.48437500000000006,1.2773430000000001 -1.5820319999999999,2.316406 -3.007813,2.84375 c-1.425781,0.527343 -2.929687,0.45703099999999997 -4.132812,-0.19531300000000004 c-3.640625,-1.976562 -8.195313,-0.6289060000000001 -10.171875,3.011719 zm0,0 " id="svg_4" class="" fill="#596b78" fill-opacity="1"/><path d="m116.82425131457231,61.822216641563415 c-1.7460940000000003,0.7968750000000001 -3.207031,2.25 -3.921875,4.175781 l-32.207032,86.867188 c-6.300781,17 -5.597656,35.457031 1.984376,51.972656 c7.582031,16.515625 21.117187,29.082031 38.117187,35.382812 c34.667969,12.855469 74.507813,-5.445312 87.355469,-40.097656 l32.207031,-86.871094 c1.4414060000000002,-3.882812 -0.539063,-8.199218 -4.425781,-9.644531 c0,0 -113.359375,-42.027344 -113.386719,-42.039063 c-1.8906250000000002,-0.6992180000000001 -3.953125,-0.554687 -5.722656,0.253907 zm106.859375,53.246093 s-29.582032,79.785157 -29.601563,79.835938 c-9.957031,26.859375 -41.269531,41.183594 -68.070312,31.246094 c-13.238281,-4.90625 -23.785157,-14.699219 -29.695313,-27.574219 s-6.460937,-27.253906 -1.5507810000000002,-40.496094 l29.597656,-79.832031 zm0,0 " id="svg_5" class="" fill="#596b78" fill-opacity="1"/><path d="m185.6523763145723,175.50971664156341 c3.835937,1.425781 8.222656,-0.5898440000000001 9.644531,-4.425781 l2.410156,-6.5 c1.441407,-3.8867190000000003 -0.542969,-8.203126 -4.425781,-9.644532 c-3.8867190000000003,-1.4375 -8.203125,0.542969 -9.644531,4.425782 l-2.410157,6.503906 c-1.4414060000000002,3.886718 0.542969,8.203125 4.425782,9.640625 zm0,0 " id="svg_6" class="" fill="#596b78" fill-opacity="1"/><path d="m113.80081331457231,148.87299764156342 c3.835938,1.417969 8.21875,-0.5937500000000001 9.644531,-4.425781 c0,-0.003907000000000001 2.410157,-6.503907 2.410157,-6.503907 c1.4414060000000002,-3.886718 -0.542969,-8.203124 -4.425781,-9.644531 c-3.8867190000000003,-1.4375 -8.203126,0.542969 -9.644532,4.425781 l-2.410156,6.503907 c-1.4414060000000002,3.8867190000000003 0.5390619999999999,8.203125 4.425781,9.644531 zm0,0 " id="svg_7" class="" fill="#596b78" fill-opacity="1"/><path d="m148.4414383145723,165.66205964156342 c5.363282,1.9882819999999999 11.464844,1.664063 16.507813,-1.078124 c3.640625,-1.9765629999999998 4.9921869999999995,-6.53125 3.015625,-10.171876 c-1.9804689999999998,-3.6406240000000003 -6.53125,-4.9921869999999995 -10.175782,-3.011718 c-1.1992180000000001,0.648437 -2.707031,0.7226560000000001 -4.132812,0.19140600000000005 c-1.425781,-0.527344 -2.5195309999999997,-1.5625 -3.003906,-2.8398440000000003 c-1.472656,-3.875 -5.808594,-5.8203119999999995 -9.679688,-4.347656 c-3.875,1.472656 -5.8203119999999995,5.8046880000000005 -4.347656,9.675781 c2.023438,5.328125 6.328125,9.546875 11.816406,11.582031 zm0,0 " id="svg_8" class="" fill="#596b78" fill-opacity="1"/><path d="m8.33206331457231,360.08784164156344 s119.59375,44.339844 119.601563,44.34375 c5.691406,2.109375 12.335937,-0.18750000000000003 15.46875,-5.53125 c2.320312,-3.9492190000000003 2.363281,-8.710938 0.11328100000000002,-12.738282 c-11.296875,-20.230468 -28.453125,-34.410156 -36.941406,-40.625 l26.863281,-72.453124 c3.6367190000000003,0.41406200000000004 7.269531,0.6406240000000002 10.886719,0.6406240000000002 c39.511719,0 76.742187,-24.273437 91.261719,-63.429687 l13.273437,-35.796875 l27.734375,74.804688 c14.070312,37.953124 50.710938,63.449218 91.171875,63.449218 c3.6796870000000004,0 7.34375,-0.23046800000000003 10.984375,-0.648437 l26.859375,72.445312 c-8.492187,6.214844 -25.648437,20.394531 -36.945313,40.625 c-5.667968,10.148438 4.6796880000000005,22.3125 15.582032,18.269531 c0,0 119.472656,-44.296874 119.601562,-44.34375 c10.960938,-4.066406 10.816406,-20.011718 -0.09765600000000003,-24.015624 c-16.078125,-5.890626 -32.492188,-7.128907 -43.429688,-7.128907 c-4.40625,0 -8.179687,0.19531300000000004 -11.0625,0.41796900000000003 l-26.863281,-72.445312 c36.125,-24.550782 52.371094,-71.476563 36.519531,-114.222657 c0,0 -46.988281,-126.734375 -47.027343,-126.84375 c-4.597657,-12.394531 -18.933594,-18.960937 -31.308594,-14.371093 l-96.472656,35.769531 c0.535156,-10.359375 -5.636719,-20.328125 -15.859375,-24.117188 l-83.050782,-30.792969 c-3.882812,-1.4375 -8.203124,0.542969 -9.640624,4.425782 c-1.441407,3.886718 0.5390619999999999,8.203125 4.425781,9.644531 l83.046875,30.792969 c4.835937,1.7929680000000001 7.3125,7.183594 5.519531,12.019531 c0,0 -26.722656,72.074219 -26.722656,72.078125 l-20.308594,54.769531 c-14.203125,38.304688 -54.101563,59.75 -92.957031,52.082031 c-8.796875,-1.734374 -17.261719,-4.902343 -25.042969,-9.351562 c-14.789063,-8.441406 -26.566406,-21.230469 -33.8125,-37.015625 c-9.160156,-19.957031 -10.003906,-42.289063 -2.367187,-62.882813 c0,0 46.972656,-126.695312 47.027343,-126.84375 c1.773438,-4.78125 7.238281,-7.292968 12.019531,-5.519531 l25.5,9.457031 c3.8867190000000003,1.441407 8.203126,-0.542968 9.644532,-4.425781 c1.4414060000000002,-3.8867190000000003 -0.542969,-8.203125 -4.425782,-9.644531 c0,0 -25.488281,-9.449219 -25.5,-9.453125 c-12.464843,-4.621094 -26.699218000000002,1.945313 -31.308593,14.371094 l-47.027344,126.84375 c-9.027344,24.347656 -8.035156,50.757812 2.800781,74.359375 c7.519532,16.378906 19.15625,30.035156 33.710938,39.882812 l-26.851563,72.425782 c-2.8867190000000003,-0.22656300000000004 -6.664062,-0.41796900000000003 -11.066406,-0.41796900000000003 c-10.9375,0 -27.351563,1.234375 -43.429687,7.128906 c-5.113282,1.8710940000000003 -8.4179692,6.59375 -8.429688,12.023437 c-0.011718800000000003,5.402344 3.261719,10.105469 8.332031,11.988282 zm400.851563,-56.625 l28.027344,75.589844 c1.234374,3.332031 4.648437,5.335937 8.167968,4.808593 c0.05859400000000001,-0.011719000000000004 6.050782,-0.902343 14.941406,-0.902343 c8.355469,0 20.265626,0.7968740000000001 32.34375,4.28125 l-107.671874,39.917968 c13.492187,-20.59375 33.4375,-33.25 33.644531,-33.382812 c3.023437,-1.882813 4.304687,-5.6328130000000005 3.066406,-8.972656 l-28.027344,-75.589844 c5.242188,-1.4570319999999999 10.359375,-3.347656 15.285157,-5.652344 c0.074218,-0.03515600000000001 0.15234300000000003,-0.06640600000000002 0.22265600000000002,-0.09765600000000003 zm-23.390625,-248.90625 c4.390625,-1.625 10.78125,0.5625 12.019531,5.519531 c0,0 47.03125,126.84375 47.03125,126.84375 c14.203125,38.308594 -2.074219,80.582031 -36.539062,100.097656 c-12.195313,6.90625 -26.394532,10.730469 -40.542969,10.730469 c-34.214844,0 -65.199219,-21.566406 -77.101563,-53.664062 l-33.804687,-91.171876 l21.730469,-58.605468 zm-333.933594,289.394531 c8.890625,0 14.882813,0.8906250000000002 14.933594,0.898437 c3.515625,0.539063 6.9375,-1.46875 8.175781,-4.808593 l28.023438,-75.589844 c2.496093,1.171875 5.046874,2.242187 7.632812,3.203125 c2.582031,0.9570310000000001 5.222656,1.808594 7.875,2.546875 l-28.027344,75.589844 c-1.234375,3.332031 0.046875000000000014,7.082031 3.058594,8.96875 c0.21875000000000003,0.13671900000000003 20.164062,12.792969 33.652344,33.390625 l-107.667969,-39.917969 c12.078125,-3.484375 23.988281,-4.28125 32.34375,-4.28125 zm0,0 " id="svg_9" class="" fill="#596b78" fill-opacity="1"/></g></svg>