<svg height="512pt" viewBox="0 -34 512.00143 512" width="512pt" xmlns="http://www.w3.org/2000/svg"><path d="m276.242188 142.621094c-3.882813 1.441406-5.867188 5.757812-4.425782 9.644531 0 0 32.195313 86.832031 32.207032 86.867187 12.8125 34.558594 52.8125 52.910157 87.359374 40.101563 35.136719-13.027344 53.125-52.214844 40.097657-87.355469 0 0-32.207031-86.867187-32.207031-86.871094-1.378907-3.714843-5.746094-5.871093-9.644532-4.425781l-26.222656 9.722657c-3.886719 1.441406-5.867188 5.757812-4.425781 9.644531 1.4375 3.886719 5.753906 5.867187 9.640625 4.425781l19.191406-7.113281 29.597656 79.835937c10.152344 27.378906-3.863281 57.917969-31.246094 68.070313-27.382812 10.148437-57.917968-3.867188-68.070312-31.25l-29.597656-79.832031 52.285156-19.386719c3.886719-1.441407 5.867188-5.757813 4.425781-9.644531-1.441406-3.882813-5.753906-5.867188-9.640625-4.425782zm0 0"/><path d="m318.898438 193.953125c-3.886719 1.4375-5.867188 5.757813-4.429688 9.640625 0 0 2.410156 6.496094 2.414062 6.503906 1.402344 3.785156 5.855469 5.828125 9.640626 4.425782 3.886718-1.441407 5.867187-5.757813 4.425781-9.644532l-2.410157-6.5c-1.441406-3.886718-5.757812-5.867187-9.640624-4.425781zm0 0"/><path d="m388.734375 183.457031c1.417969 3.824219 5.828125 5.839844 9.644531 4.425781 3.882813-1.441406 5.867188-5.757812 4.425782-9.644531l-2.410157-6.5c-1.441406-3.886719-5.757812-5.867187-9.644531-4.425781-3.886719 1.4375-5.867188 5.757812-4.425781 9.640625 0 0 2.40625 6.496094 2.410156 6.503906zm0 0"/><path d="m344.214844 193.421875c-1.976563 3.644531-.628906 8.199219 3.011718 10.175781 5.046876 2.738282 11.148438 3.0625 16.511719 1.078125 5.484375-2.035156 9.792969-6.253906 11.816407-11.582031 1.472656-3.871094-.472657-8.207031-4.347657-9.679688-3.871093-1.472656-8.207031.476563-9.679687 4.347657-.484375 1.277343-1.582032 2.316406-3.007813 2.84375-1.425781.527343-2.929687.457031-4.132812-.195313-3.640625-1.976562-8.195313-.628906-10.171875 3.011719zm0 0"/><path d="m116.824219 61.824219c-1.746094.796875-3.207031 2.25-3.921875 4.175781l-32.207032 86.867188c-6.300781 17-5.597656 35.457031 1.984376 51.972656 7.582031 16.515625 21.117187 29.082031 38.117187 35.382812 34.667969 12.855469 74.507813-5.445312 87.355469-40.097656l32.207031-86.871094c1.441406-3.882812-.539063-8.199218-4.425781-9.644531 0 0-113.359375-42.027344-113.386719-42.039063-1.890625-.699218-3.953125-.554687-5.722656.253907zm106.859375 53.246093s-29.582032 79.785157-29.601563 79.835938c-9.957031 26.859375-41.269531 41.183594-68.070312 31.246094-13.238281-4.90625-23.785157-14.699219-29.695313-27.574219s-6.460937-27.253906-1.550781-40.496094l29.597656-79.832031zm0 0"/><path d="m185.652344 175.511719c3.835937 1.425781 8.222656-.589844 9.644531-4.425781l2.410156-6.5c1.441407-3.886719-.542969-8.203126-4.425781-9.644532-3.886719-1.4375-8.203125.542969-9.644531 4.425782l-2.410157 6.503906c-1.441406 3.886718.542969 8.203125 4.425782 9.640625zm0 0"/><path d="m113.800781 148.875c3.835938 1.417969 8.21875-.59375 9.644531-4.425781 0-.003907 2.410157-6.503907 2.410157-6.503907 1.441406-3.886718-.542969-8.203124-4.425781-9.644531-3.886719-1.4375-8.203126.542969-9.644532 4.425781l-2.410156 6.503907c-1.441406 3.886719.539062 8.203125 4.425781 9.644531zm0 0"/><path d="m148.441406 165.664062c5.363282 1.988282 11.464844 1.664063 16.507813-1.078124 3.640625-1.976563 4.992187-6.53125 3.015625-10.171876-1.980469-3.640624-6.53125-4.992187-10.175782-3.011718-1.199218.648437-2.707031.722656-4.132812.191406-1.425781-.527344-2.519531-1.5625-3.003906-2.839844-1.472656-3.875-5.808594-5.820312-9.679688-4.347656-3.875 1.472656-5.820312 5.804688-4.347656 9.675781 2.023438 5.328125 6.328125 9.546875 11.816406 11.582031zm0 0"/><path d="m8.332031 360.089844s119.59375 44.339844 119.601563 44.34375c5.691406 2.109375 12.335937-.1875 15.46875-5.53125 2.320312-3.949219 2.363281-8.710938.113281-12.738282-11.296875-20.230468-28.453125-34.410156-36.941406-40.625l26.863281-72.453124c3.636719.414062 7.269531.640624 10.886719.640624 39.511719 0 76.742187-24.273437 91.261719-63.429687l13.273437-35.796875 27.734375 74.804688c14.070312 37.953124 50.710938 63.449218 91.171875 63.449218 3.679687 0 7.34375-.230468 10.984375-.648437l26.859375 72.445312c-8.492187 6.214844-25.648437 20.394531-36.945313 40.625-5.667968 10.148438 4.679688 22.3125 15.582032 18.269531 0 0 119.472656-44.296874 119.601562-44.34375 10.960938-4.066406 10.816406-20.011718-.097656-24.015624-16.078125-5.890626-32.492188-7.128907-43.429688-7.128907-4.40625 0-8.179687.195313-11.0625.417969l-26.863281-72.445312c36.125-24.550782 52.371094-71.476563 36.519531-114.222657 0 0-46.988281-126.734375-47.027343-126.84375-4.597657-12.394531-18.933594-18.960937-31.308594-14.371093l-96.472656 35.769531c.535156-10.359375-5.636719-20.328125-15.859375-24.117188l-83.050782-30.792969c-3.882812-1.4375-8.203124.542969-9.640624 4.425782-1.441407 3.886718.539062 8.203125 4.425781 9.644531l83.046875 30.792969c4.835937 1.792968 7.3125 7.183594 5.519531 12.019531 0 0-26.722656 72.074219-26.722656 72.078125l-20.308594 54.769531c-14.203125 38.304688-54.101563 59.75-92.957031 52.082031-8.796875-1.734374-17.261719-4.902343-25.042969-9.351562-14.789063-8.441406-26.566406-21.230469-33.8125-37.015625-9.160156-19.957031-10.003906-42.289063-2.367187-62.882813 0 0 46.972656-126.695312 47.027343-126.84375 1.773438-4.78125 7.238281-7.292968 12.019531-5.519531l25.5 9.457031c3.886719 1.441407 8.203126-.542968 9.644532-4.425781 1.441406-3.886719-.542969-8.203125-4.425782-9.644531 0 0-25.488281-9.449219-25.5-9.453125-12.464843-4.621094-26.699218 1.945313-31.308593 14.371094l-47.027344 126.84375c-9.027344 24.347656-8.035156 50.757812 2.800781 74.359375 7.519532 16.378906 19.15625 30.035156 33.710938 39.882812l-26.851563 72.425782c-2.886719-.226563-6.664062-.417969-11.066406-.417969-10.9375 0-27.351563 1.234375-43.429687 7.128906-5.113282 1.871094-8.4179692 6.59375-8.429688 12.023437-.0117188 5.402344 3.261719 10.105469 8.332031 11.988282zm400.851563-56.625 28.027344 75.589844c1.234374 3.332031 4.648437 5.335937 8.167968 4.808593.058594-.011719 6.050782-.902343 14.941406-.902343 8.355469 0 20.265626.796874 32.34375 4.28125l-107.671874 39.917968c13.492187-20.59375 33.4375-33.25 33.644531-33.382812 3.023437-1.882813 4.304687-5.632813 3.066406-8.972656l-28.027344-75.589844c5.242188-1.457032 10.359375-3.347656 15.285157-5.652344.074218-.035156.152343-.066406.222656-.097656zm-23.390625-248.90625c4.390625-1.625 10.78125.5625 12.019531 5.519531 0 0 47.03125 126.84375 47.03125 126.84375 14.203125 38.308594-2.074219 80.582031-36.539062 100.097656-12.195313 6.90625-26.394532 10.730469-40.542969 10.730469-34.214844 0-65.199219-21.566406-77.101563-53.664062l-33.804687-91.171876 21.730469-58.605468zm-333.933594 289.394531c8.890625 0 14.882813.890625 14.933594.898437 3.515625.539063 6.9375-1.46875 8.175781-4.808593l28.023438-75.589844c2.496093 1.171875 5.046874 2.242187 7.632812 3.203125 2.582031.957031 5.222656 1.808594 7.875 2.546875l-28.027344 75.589844c-1.234375 3.332031.046875 7.082031 3.058594 8.96875.21875.136719 20.164062 12.792969 33.652344 33.390625l-107.667969-39.917969c12.078125-3.484375 23.988281-4.28125 32.34375-4.28125zm0 0"/></svg>