<?xml version="1.0" standalone="no"?>
<svg
  width="600"
  height="600"
  viewBox="0 0 600 600"
  xmlns="http://www.w3.org/2000/svg"
>
  <g transform="translate(300,300)">
    <path d="M74.5,-104.3C89.9,-91.4,91.1,-60.7,94.2,-34.5C97.3,-8.3,102.4,13.3,109.9,49.8C117.5,86.4,127.5,137.8,109.6,164.2C91.7,190.5,45.8,191.8,4.8,185.2C-36.2,178.6,-72.5,164.1,-105,142.5C-137.5,120.9,-166.2,92.1,-188.4,54.1C-210.5,16.1,-226,-31.2,-206.1,-59C-186.1,-86.8,-130.7,-95.2,-90.4,-100C-50.2,-104.7,-25.1,-105.9,2.3,-109C29.6,-112.1,59.2,-117.1,74.5,-104.3Z" fill="#596b78" />
  </g>
</svg>
    