<svg xmlns="http://www.w3.org/2000/svg" height="512" width="512"><rect id="backgroundrect" width="100%" height="100%" x="0" y="0" fill="none" stroke="none"/><g class="currentLayer" style=""><title>Layer 1</title><path d="m174.238281 353.75c3.84375-1.671875 6.164063-5.515625 6.164063-11.390625 0-10.300781-7.253906-12.914063-14.507813-12.914063h-14.871093c-2.46875 0-4.933594 1.160157-4.933594 3.484376v46.136718c0 1.8125 1.882812 3.410156 4.933594 3.410156h16.101562c8.199219 0 14.582031-4.136718 14.582031-15.597656v-1.523437c.003907-7.253907-3.046875-9.9375-7.46875-11.605469zm-16.90625-14.4375h7.617188c2.757812 0 4.136719 2.539062 4.136719 5.078125 0 2.464844-1.378907 5.007813-4.136719 5.007813h-7.617188zm13.058594 26.625c0 4.640625-2.175781 6.671875-5.800781 6.671875h-7.253906v-14.507813h7.253906c3.625 0 5.800781 1.738282 5.800781 6.671876zm0 0" id="svg_1" class="selected" fill="#596b78" fill-opacity="1"/><path d="m266.777344 329.445312h-25.171875c-2.464844 0-4.933594 1.160157-4.933594 3.484376v46.066406c0 2.320312 2.832031 3.480468 5.660156 3.480468s5.65625-1.160156 5.65625-3.480468v-18.71875h10.957031c2.394532 0 3.410157-2.320313 3.410157-4.28125 0-2.320313-1.234375-4.425782-3.410157-4.425782h-10.957031v-12.257812h18.792969c2.175781 0 3.410156-2.324219 3.410156-5.007812-.003906-2.320313-1.019531-4.859376-3.414062-4.859376zm0 0" id="svg_2" class="selected" fill="#596b78" fill-opacity="1"/><path d="m356.3125 329.445312h-25.175781c-2.464844 0-4.933594 1.160157-4.933594 3.484376v46.066406c0 2.320312 2.832031 3.480468 5.660156 3.480468s5.660157-1.160156 5.660157-3.480468v-18.71875h10.953124c2.394532 0 3.410157-2.320313 3.410157-4.28125 0-2.320313-1.234375-4.425782-3.410157-4.425782h-10.953124v-12.257812h18.789062c2.175781 0 3.410156-2.324219 3.410156-5.007812 0-2.320313-1.019531-4.859376-3.410156-4.859376zm0 0" id="svg_3" class="selected" fill="#596b78" fill-opacity="1"/><path d="m434.921875 59.195312c-33.320313-26.46875-74.699219-45.011718-119.667969-53.621093h-.003906s0-.003907-.003906-.003907c-14.730469-2.832031-29.929688-4.601562-45.175782-5.261718-.003906 0-.003906 0-.007812 0-9.15625-.410156-18.953125-.410156-28.101562 0 0 0-.003907 0-.007813 0-15.253906.660156-30.460937 2.429687-45.195313 5.265625-.003906 0-.003906 0-.003906 0h-.003906s0 0-.003906 0c-40.445313 7.742187-78.429688 23.738281-109.847656 46.253906-3.367188 2.414063-4.140626 7.101563-1.726563 10.464844 2.414063 3.367187 7.097656 4.140625 10.464844 1.730469 27.355469-19.609376 60.046875-33.988282 95.027343-41.863282v19.855469c-43.125 10.472656-81.925781 31.542969-109.792968 59.707031-30.460938 30.789063-46.5625 67.707032-46.5625 106.769532 0 30.597656 9.839844 58.832031 29.242187 83.921874 12.507813 16.167969 28.667969 30.441407 48.082031 42.476563v22.394531c-28.46875-15.757812-51.984374-36.375-68.46875-60.121094-18.425781-26.550781-28.164062-57.210937-28.164062-88.671874 0-23.226563 5-45.871094 14.859375-67.296876 9.875-21.457031 24.398437-41.214843 43.164063-58.71875 3.027343-2.824218 3.195312-7.570312.367187-10.597656-2.824219-3.03125-7.570313-3.195312-10.597656-.371094-40.492188 37.765626-62.792969 86.414063-62.792969 136.984376 0 34.53125 10.664062 68.148437 30.84375 97.222656 19.179688 27.636718 47.058594 51.25 80.789062 68.535156v8.230469c0 14.195312 11.550782 25.746093 25.746094 25.746093h53.039063c7.125 0 13.582031-2.910156 18.246093-7.601562 4.667969 4.691406 11.121094 7.601562 18.246094 7.601562h53.039063c7.125 0 13.582031-2.910156 18.246093-7.601562 4.667969 4.691406 11.125 7.601562 18.25 7.601562h53.039063c14.195313 0 25.746094-11.550781 25.746094-25.746093v-5.65625c30.210937-14.691407 56.273437-34.488281 75.570312-57.484375 7.796875-9.289063 14.636719-19.261719 20.320313-29.636719 1.992187-3.632813.660156-8.191406-2.972656-10.179687-3.632813-1.992188-8.191407-.660157-10.179688 2.972656-5.214844 9.511718-11.492188 18.664062-18.660156 27.203125-16.550782 19.726562-38.546875 36.980469-64.078125 50.34375v-22.0625c19.617187-11.410157 36.183593-25.085938 49.285156-40.695313 22.015625-26.214844 33.175781-56.089844 33.175781-88.792968 0-39.0625-16.101562-75.980469-46.558594-106.769532-27.867187-28.167968-66.671874-49.234375-109.796874-59.707031v-19.859375c39.144531 8.792969 75.027343 25.5625 104.253906 48.785156 46.050781 36.59375 71.410156 85.441406 71.410156 137.550782 0 16.3125-2.566406 32.394531-7.636719 47.796874-1.292969 3.933594.847657 8.171876 4.78125 9.46875 3.933594 1.292969 8.175781-.847656 9.46875-4.78125 5.566407-16.917968 8.386719-34.578124 8.386719-52.484374 0-56.777344-27.375-109.796876-77.078125-149.296876zm-128.585937-20.367187c-9.570313-1.746094-19.3125-2.996094-29.113282-3.726563v-19.367187c9.804688.679687 19.550782 1.839844 29.113282 3.464844zm-44.113282-23.769531v19.316406c-4.167968-.09375-8.273437-.09375-12.445312 0v-19.316406c4.121094-.082032 8.324218-.082032 12.445312 0zm-27.445312 20.042968c-9.800782.730469-19.542969 1.980469-29.113282 3.726563v-19.628906c9.5625-1.625 19.308594-2.785157 29.113282-3.464844zm-33.613282 347.378907c0 5.925781-4.820312 10.746093-10.746093 10.746093h-53.039063c-5.925781 0-10.746094-4.820312-10.746094-10.746093v-53.039063c0-5.925781 4.820313-10.746094 10.746094-10.746094h53.039063c5.925781 0 10.746093 4.820313 10.746093 10.746094zm78.785157 10.746093h-53.039063c-5.925781 0-10.746094-4.820312-10.746094-10.746093v-53.039063c0-5.925781 4.820313-10.746094 10.746094-10.746094h53.039063c5.925781 0 10.746093 4.820313 10.746093 10.742188v.003906 53.039063.003906c0 5.921875-4.820312 10.742187-10.746093 10.742187zm100.28125-10.746093c0 5.925781-4.820313 10.746093-10.746094 10.746093h-53.042969c-5.921875 0-10.742187-4.820312-10.746094-10.742187v-.003906-53.039063c0-.003906 0-.003906 0-.003906.003907-5.921875 4.824219-10.742188 10.746094-10.742188h53.042969c5.925781 0 10.746094 4.820313 10.746094 10.746094zm40.238281-270.207031c27.621094 27.917968 42.222656 61.191406 42.222656 96.21875 0 29.082031-9.980468 55.710937-29.664062 79.148437-10.589844 12.617187-23.730469 23.886719-39.144532 33.609375-3.429687-10.191406-13.066406-17.554688-24.402343-17.554688h-53.039063c-7.125 0-13.578125 2.910157-18.246094 7.601563-4.664062-4.691406-11.121093-7.601563-18.246093-7.601563h-53.039063c-7.125 0-13.582031 2.910157-18.246094 7.601563-4.667968-4.691406-11.121093-7.601563-18.246093-7.601563h-53.039063c-10.320312 0-19.238281 6.109376-23.34375 14.898438-15.4375-10.296875-28.40625-22.152344-38.621094-35.355469-17.320312-22.398437-26.105468-47.546875-26.105468-74.746093 0-35.027344 14.601562-68.300782 42.222656-96.21875 27.117188-27.410157 65.554688-47.640626 108.234375-56.964844 13.945313-3.050782 28.371094-4.957032 42.878906-5.667969h.003907c8.917968-.441406 17.78125-.441406 26.703124 0h.003907c14.507812.710937 28.933593 2.617187 42.875 5.667969h.003906c42.679687 9.324218 81.117187 29.554687 108.234375 56.964844zm0 0" id="svg_4" class="selected" fill="#596b78" fill-opacity="1"/></g></svg>