<svg height="511pt" viewBox="0 -51 511.997 511" width="511pt" xmlns="http://www.w3.org/2000/svg"><path d="m191.214844 112.335938c4.140625 0 7.5-3.359376 7.5-7.5v-11.882813c0-4.140625-3.359375-7.5-7.5-7.5s-7.5 3.359375-7.5 7.5v11.882813c0 4.140624 3.359375 7.5 7.5 7.5zm0 0"/><path d="m59.902344 112.335938c4.140625 0 7.5-3.359376 7.5-7.5v-11.882813c0-4.140625-3.359375-7.5-7.5-7.5s-7.5 3.359375-7.5 7.5v11.882813c0 4.140624 3.359375 7.5 7.5 7.5zm0 0"/><path d="m125.558594 118.679688c8.480468 0 16.445312-3.550782 21.851562-9.734376 2.726563-3.117187 2.410156-7.855468-.710937-10.582031-3.117188-2.726562-7.855469-2.410156-10.582031.710938-2.558594 2.925781-6.40625 4.605469-10.558594 4.605469s-8-1.679688-10.558594-4.605469c-2.726562-3.121094-7.464844-3.4375-10.582031-.710938-3.117188 2.726563-3.4375 7.464844-.710938 10.582031 5.40625 6.1875 13.371094 9.734376 21.851563 9.734376zm0 0"/><path d="m125.558594.5c-21.980469 0-43.617188 5.765625-62.5625 16.671875-3.589844 2.066406-4.824219 6.652344-2.757813 10.242187 2.066407 3.589844 6.652344 4.828126 10.242188 2.757813 16.671875-9.597656 35.71875-14.671875 55.078125-14.671875 60.964844 0 110.558594 49.59375 110.558594 110.558594v40.5625c0 11.902344-10.015626 22.015625-22.011719 22.015625-11.820313 0-22.015625-10.1875-22.015625-22.015625 0-4.144532-3.359375-7.5-7.5-7.5-4.144532 0-7.5 3.355468-7.5 7.5 0 11.824218-10.183594 22.015625-22.015625 22.015625-11.898438 0-22.015625-10.101563-22.015625-22.015625 0-4.144532-3.359375-7.5-7.5-7.5s-7.5 3.355468-7.5 7.5c0 11.820312-10.183594 22.015625-22.015625 22.015625-11.894531 0-22.015625-10.101563-22.015625-22.015625 0-4.144532-3.355469-7.5-7.5-7.5-4.140625 0-7.5 3.355468-7.5 7.5 0 11.839844-10.164063 22.015625-22.011719 22.015625-11.972656-.003907-22.015625-10.066407-22.015625-22.015625v-40.566406c0-29.804688 11.691406-57.757813 32.921875-78.699219 2.945313-2.910157 2.980469-7.65625.070313-10.605469-2.910157-2.953125-7.660157-2.984375-10.605469-.074219-24.109375 23.785157-37.386719 55.527344-37.386719 89.378907v40.566406c0 9.445312 3.5625 18.070312 9.40625 24.617187l89.347656 201.527344c.042969.089844.085938.183594.128906.269531 5.039063 10.242188 15.261719 16.605469 26.675782 16.605469 11.414062 0 21.636718-6.363281 26.675781-16.605469.042969-.089844.085937-.179687.128906-.269531l89.347657-201.527344c5.84375-6.546875 9.40625-15.171875 9.40625-24.617187v-40.566406c0-69.230469-56.324219-125.554688-125.558594-125.554688zm13.15625 386.035156c-2.550782 5.078125-7.460938 8.105469-13.15625 8.105469-5.695313 0-10.605469-3.027344-13.15625-8.105469l-81.296875-183.367187c.65625.105469 1.316406.1875 1.980469.253906 12.828124 1.34375 25.648437-4.203125 33.441406-14.488281 6.765625 8.925781 17.480468 14.699218 29.515625 14.699218 12.039062 0 22.75-5.773437 29.515625-14.699218 6.765625 8.925781 17.476562 14.699218 29.515625 14.699218 12.035156 0 22.75-5.773437 29.515625-14.699218 6.761718 8.925781 17.476562 14.699218 29.515625 14.699218 1.96875 0 3.960937-.152343 5.910156-.464843zm0 0"/><path d="m452.097656 112.335938c4.140625 0 7.5-3.359376 7.5-7.5v-11.882813c0-4.140625-3.359375-7.5-7.5-7.5s-7.5 3.359375-7.5 7.5v11.882813c0 4.140624 3.359375 7.5 7.5 7.5zm0 0"/><path d="m320.785156 112.335938c4.140625 0 7.5-3.359376 7.5-7.5v-11.882813c0-4.140625-3.359375-7.5-7.5-7.5s-7.5 3.359375-7.5 7.5v11.882813c0 4.140624 3.359375 7.5 7.5 7.5zm0 0"/><path d="m386.441406 118.679688c8.480469 0 16.445313-3.550782 21.851563-9.734376 2.726562-3.117187 2.40625-7.855468-.710938-10.582031-3.117187-2.726562-7.855469-2.410156-10.582031.710938-2.558594 2.925781-6.40625 4.605469-10.558594 4.605469s-8-1.679688-10.558594-4.605469c-2.726562-3.121094-7.464843-3.4375-10.582031-.710938-3.121093 2.726563-3.4375 7.464844-.710937 10.582031 5.40625 6.1875 13.371094 9.734376 21.851562 9.734376zm0 0"/><path d="m386.441406.5c-21.980468 0-43.617187 5.765625-62.5625 16.671875-3.59375 2.066406-4.824218 6.652344-2.757812 10.242187 2.066406 3.589844 6.652344 4.828126 10.242187 2.757813 16.671875-9.597656 35.71875-14.671875 55.078125-14.671875 60.960938 0 110.558594 49.59375 110.558594 110.554688v40.566406c0 11.902344-10.015625 22.011718-22.015625 22.011718-11.816406 0-22.015625-10.183593-22.015625-22.011718 0-4.144532-3.355469-7.5-7.5-7.5-4.140625 0-7.5 3.355468-7.5 7.5 0 11.824218-10.179688 22.011718-22.015625 22.011718-11.898437 0-22.011719-10.101562-22.011719-22.011718 0-4.144532-3.359375-7.5-7.5-7.5-4.144531 0-7.5 3.355468-7.5 7.5 0 11.820312-10.1875 22.011718-22.015625 22.011718-11.894531 0-22.015625-10.097656-22.015625-22.011718 0-4.144532-3.359375-7.5-7.5-7.5s-7.5 3.355468-7.5 7.5c0 11.839844-10.164062 22.011718-22.015625 22.011718-11.972656 0-22.015625-10.0625-22.015625-22.011718v-40.566406c0-29.804688 11.691406-57.757813 32.921875-78.699219 2.949219-2.910157 2.980469-7.65625.070313-10.605469-2.910156-2.953125-7.65625-2.984375-10.605469-.074219-24.109375 23.785157-37.386719 55.527344-37.386719 89.378907v40.566406c0 9.445312 3.5625 18.070312 9.40625 24.617187l89.351563 201.527344c.039062.089844.082031.183594.125.269531 5.042969 10.242188 15.261719 16.605469 26.675781 16.605469s21.636719-6.363281 26.675781-16.605469c.046875-.089844.085938-.179687.128907-.269531l89.347656-201.527344c5.847656-6.546875 9.40625-15.171875 9.40625-24.617187v-40.566406c.003906-69.230469-56.320313-125.554688-125.554688-125.554688zm13.15625 386.035156c-2.550781 5.078125-7.460937 8.105469-13.15625 8.105469-5.695312 0-10.601562-3.027344-13.15625-8.105469l-81.300781-183.367187c.65625.105469 1.320313.1875 1.984375.253906 12.828125 1.34375 25.648438-4.203125 33.441406-14.488281 6.765625 8.925781 17.476563 14.699218 29.515625 14.699218 12.039063 0 22.75-5.773437 29.515625-14.699218 6.765625 8.925781 17.476563 14.699218 29.515625 14.699218 12.035157 0 22.75-5.773437 29.515625-14.699218 6.761719 8.925781 17.476563 14.699218 29.511719 14.699218 1.972656 0 3.964844-.152343 5.914063-.464843zm0 0"/></svg>