<svg height="512pt" viewBox="-30 0 512 512" width="512pt" xmlns="http://www.w3.org/2000/svg"><path d="m152.011719 292.933594c0-17.007813-11.976563-21.320313-23.953125-21.320313h-24.554688c-4.070312 0-8.144531 1.914063-8.144531 5.75v76.171875c0 2.996094 3.117187 5.628906 8.144531 5.628906h26.589844c13.535156 0 24.074219-6.824218 24.074219-25.75v-2.515624c0-11.976563-5.03125-16.40625-12.335938-19.164063 6.347657-2.753906 10.179688-9.101563 10.179688-18.800781zm-38.089844-5.03125h12.578125c4.550781 0 6.828125 4.191406 6.828125 8.382812 0 4.070313-2.277344 8.265625-6.828125 8.265625h-12.578125zm21.5625 43.953125c0 7.667969-3.59375 11.019531-9.582031 11.019531h-11.980469v-23.953125h11.980469c5.988281 0 9.582031 2.875 9.582031 11.019531zm0 0"/><path d="m355.722656 287.902344c3.59375 0 5.628906-3.835938 5.628906-8.265625 0-3.832031-1.675781-8.023438-5.628906-8.023438h-41.5625c-4.070312 0-8.144531 1.914063-8.144531 5.75v76.054688c0 3.832031 4.671875 5.746093 9.34375 5.746093s9.34375-1.914062 9.34375-5.746093v-30.902344h18.082031c3.953125 0 5.628906-3.832031 5.628906-7.066406 0-3.832031-2.035156-7.304688-5.628906-7.304688h-18.082031v-20.242187zm0 0"/><path d="m64.894531 401.316406c35.667969 37.6875 85.125 73.75 147 107.1875 4.234375 2.285156 9.046875 3.496094 13.859375 3.496094s9.585938-1.207031 13.828125-3.496094c35.0625-18.949218 66.453125-38.945312 93.300781-59.4375 3.289063-2.515625 3.921876-7.21875 1.410157-10.511718-2.515625-3.292969-7.21875-3.925782-10.511719-1.414063-25.273438 19.292969-54.726562 38.164063-87.597656 56.136719 0 0 13.976562-53.761719 13.976562-53.761719.566406-2.179687.101563-4.5625-1.242187-6.367187l-31.582031-42.410157 52.226562-55.417969c2.714844-2.878906 2.722656-7.371093.023438-10.261718l-61.238282-65.625 23.65625-53.503906c23.636719-22.734376 54.214844-39.183594 87.207032-42.097657.183593-.015625.367187-.035156.550781-.050781 51.871093-4.390625 103.335937 26.960938 114.484375 79.4375 5.203125 24.476562 1.382812 52.003906-11.039063 79.597656-14.496093 32.195313-40.175781 64.359375-76.332031 95.597656-3.136719 2.707032-3.480469 7.441407-.773438 10.578126 2.707032 3.132812 7.445313 3.480468 10.578126.769531 37.824218-32.675781 64.808593-66.585938 80.207031-100.789063 13.738281-30.523437 17.902343-61.253906 12.03125-88.875-8.773438-41.289062-39.039063-73.515625-80.960938-86.195312-1.976562-.597656-3.964843-1.128906-5.957031-1.632813 11.179688-37.476562 23.925781-90.683593 26.324219-144.433593.191406-4.230469-3.273438-7.835938-7.492188-7.835938h-50.539062c-3.992188 0-7.285157 3.128906-7.492188 7.117188-2.910156 56.917968-19.417969 114.699218-29.867187 146.3125-23.777344 6.558593-46.785156 19.347656-67.1875 37.847656-21.480469-19.535156-44.480469-31.757813-67.238282-37.949219-10.453124-31.632813-26.925781-89.355469-29.835937-146.210937-.203125-3.988282-3.496094-7.117188-7.488281-7.117188h-50.542969c-4.238281 0-7.679687 3.59375-7.492187 7.835938 2.402343 53.773437 15.160156 107.015624 26.34375 144.496093-18.464844 4.632813-35.191407 13.132813-48.847657 24.550781-3.175781 2.65625-3.597656 7.386719-.941406 10.5625 2.65625 3.179688 7.386719 3.601563 10.5625.945313 14.792969-12.367187 31.042969-19.765625 47.746094-23.097656 10.65625-2.125 22.609375-2.597657 33.425781-1.53125 31.304688 3.085937 61.886719 18.179687 85.300781 39.609375l-24.113281 54.527344c-1.214844 2.746093-.671875 5.953124 1.378906 8.148437l59.820313 64.101563-51.71875 54.878906c-2.496094 2.648437-2.730469 6.703125-.558594 9.621094l33.191406 44.570312-14.707031 56.578125c-.34375-.152344-.679688-.316406-1.003906-.492187-60.472656-32.675782-108.664063-67.769532-143.234375-104.300782-30.042969-31.746094-49.230469-63.828125-57.03125-95.359375-7.964844-32.203125-3.535157-62.117187 12.8125-86.511719 2.304687-3.441406 1.386719-8.101562-2.054688-10.40625-3.441406-2.304687-8.101562-1.386718-10.40625 2.054688-18.496093 27.601562-23.789062 62.570312-14.910156 98.464844 8.425781 34.082031 28.847656 68.421875 60.691406 102.070312zm49.230469-386.316406c3.59375 51.546875 17.308594 102.695312 27.476562 134.804688-12.347656-1.792969-24.9375-1.957032-37.3125-.351563-10.488281-34.894531-22.535156-84.179687-25.730468-134.453125zm195.742188 134.824219c10.171874-32.105469 23.886718-83.265625 27.484374-134.824219h35.566407c-3.195313 50.269531-15.242188 99.558594-25.726563 134.449219-12.324218-1.617188-24.808594-1.480469-37.207031.359375-.039063.007812-.078125.007812-.117187.015625zm0 0"/></svg>