<svg height="511pt" viewBox="0 -7 511.99966 511" width="511pt" xmlns="http://www.w3.org/2000/svg"><path d="m152.140625 153.039062v-20.15625c0-4.140624-3.355469-7.496093-7.5-7.496093-4.140625 0-7.496094 3.355469-7.496094 7.496093v20.15625c0 4.140626 3.355469 7.5 7.496094 7.5 4.144531 0 7.5-3.359374 7.5-7.5zm0 0"/><path d="m374.855469 153.039062v-20.15625c0-4.140624-3.355469-7.496093-7.5-7.496093-4.140625 0-7.496094 3.355469-7.496094 7.496093v20.15625c0 4.140626 3.355469 7.5 7.496094 7.5 4.144531 0 7.5-3.359374 7.5-7.5zm0 0"/><path d="m256 171.292969c12.875 0 24.953125-5.363281 33.128906-14.722657 2.726563-3.117187 2.410156-7.855468-.710937-10.582031-3.117188-2.726562-7.855469-2.40625-10.582031.710938-5.328126 6.097656-13.289063 9.597656-21.835938 9.597656s-16.507812-3.5-21.839844-9.597656c-2.726562-3.117188-7.460937-3.4375-10.582031-.710938-3.117187 2.726563-3.433594 7.460938-.707031 10.582031 8.175781 9.359376 20.253906 14.722657 33.128906 14.722657zm0 0"/><path d="m3.878906 262c13.550782 56.554688 42.425782 80.777344 67.898438 102.144531 31.554687 26.46875 58.804687 49.328125 58.804687 126.949219 0 4.140625 3.359375 7.5 7.5 7.5h235.835938c4.140625 0 7.5-3.359375 7.5-7.5 0-77.621094 27.25-100.480469 58.804687-126.949219 25.472656-21.367187 54.34375-45.589843 67.898438-102.144531 7-29.203125 4.515625-52.261719-7.386719-68.53125-.191406-.261719-.382813-.511719-.574219-.761719 12.910156-34.0625 15.132813-67.828125 6.378906-97.914062-8.433593-28.992188-26.367187-53.351563-51.863281-70.453125-27.914062-18.71875-62.625-26.820313-97.738281-22.808594-36.242188 4.144531-71.003906 20.761719-100.9375 48.179688-26.476562-24.230469-57.074219-40.203126-88.890625-46.332032-31.425781-6.050781-62.726563-2.523437-90.523437 10.203125-3.765626 1.722657-5.421876 6.175781-3.699219 9.9375 1.726562 3.765625 6.175781 5.421875 9.941406 3.699219 24.941406-11.421875 53.105469-14.570312 81.441406-9.113281 31.042969 5.980469 60.953125 22.332031 86.488281 47.292969 2.914063 2.847656 7.570313 2.847656 10.484376 0 28.679687-28.03125 62.359374-44.960938 97.398437-48.964844 31.578125-3.609375 62.71875 3.625 87.679687 20.363281 22.535157 15.117187 38.378907 36.617187 45.816407 62.183594 7.34375 25.242187 5.972656 53.609375-3.902344 82.589843-4.554687-2.953124-8.21875-4.148437-9.238281-4.449218-3.90625-1.136719-8.332032 1.289062-9.390625 5.238281-.679688 2.53125-1.410157 5.050781-2.1875 7.5625-9.332031 30.109375-25.632813 58.699219-48.640625 85.316406-5.75 6.652344-11.917969 13.1875-18.503906 19.585938-2.929688 2.847656-3 7.671875-.152344 10.605469 2.78125 2.855468 7.738281 2.929687 10.605468.148437 4.324219-4.191406 8.519532-8.472656 12.585938-12.910156 23.800781-25.785157 41.542969-53.496094 52.988281-82.757813 1.851563-4.804687 3.636719-9.792968 5.195313-14.757812 1.449218 1.0625 3.019531 2.402344 4.570312 4.070312.039063.042969.078125.074219.117188.109375 7.800781 8.527344 15.375 25.691407 7.351562 59.175781-12.398437 51.738282-38.097656 73.296876-62.953125 94.144532-30.59375 25.667968-62.199219 52.179687-64.074219 130.941406h-103.007812s0-169.449219 0-169.542969c0-12.878906 11.101562-23.980469 23.976562-23.980469 12.882813 0 23.980469 11.113282 23.980469 23.980469v48.132813c0 5.40625 5.792969 9.023437 10.679688 6.789062 1.25-.585937 31.054687-14.683594 65.671875-42.984375 3.207031-2.621093 3.683594-7.34375 1.0625-10.550781s-7.347656-3.679688-10.554688-1.0625c-16.207031 13.253906-33.578125 25.191406-51.863281 35.398438 0 0 0-35.71875 0-35.726563 0-21.15625-17.828125-38.976563-38.976563-38.976563-12.265624 0-24.078124 6.015626-31.363281 15.871094-.039062.050782-.078125.097656-.113281.144532-.039062-.046876-.078125-.097657-.117188-.144532-7.234374-9.742187-19.121093-15.871094-31.363281-15.871094-21.234375 0-38.976562 17.765626-38.976562 38.980469v35.722657c-9.765625-5.449219-25.300781-14.851563-42.671875-28.125-18.46875-14.121094-35.707032-29.964844-50.703125-47.757813-22.558594-26.777344-40.65625-57.554687-49.773438-91.53125-1.058593-3.929687-5.3125-6.367187-9.238281-5.28125-.707031.195313-4.542969 1.347656-9.394531 4.488281-9.234375-27.121094-11.039063-53.824218-5.1875-77.78125 5.972656-24.421875 19.621093-45.660156 39.472656-61.410156 3.246094-2.574219 3.789063-7.292969 1.214844-10.535156-2.574219-3.246094-7.292969-3.789063-10.535157-1.214844-22.488281 17.84375-37.953124 41.910156-44.71875 69.601562-6.996093 28.632813-4.277343 60.515626 7.832032 92.476563-.191406.253906-.382813.503906-.574219.765625-11.902344 16.269531-14.386719 39.328125-7.386719 68.53125zm185.984375 106.972656c4.890625 2.289063 10.679688-1.414062 10.679688-6.789062 0 0 0-48.113282 0-48.132813 0-12.90625 11.066406-23.980469 23.976562-23.980469 12.835938 0 23.980469 11.09375 23.980469 23.980469v169.542969h-103.007812c-1.878907-78.765625-33.480469-105.277344-64.078126-130.941406-24.851562-20.847656-50.550781-42.40625-62.953124-94.148438-7.996094-33.375-.492188-50.539062 7.265624-59.085937.066407-.066407.140626-.125.203126-.195313 1.554687-1.667968 3.125-3.007812 4.578124-4.070312 2.824219 8.96875 6.230469 17.769531 10.136719 26.320312.007813.019532.015625.035156.023438.054688 20.808593 45.496094 53.925781 79.796875 80.617187 102.070312 35.808594 29.878906 67.253906 44.757813 68.578125 45.375zm0 0"/></svg>