<svg height="511pt" viewBox="0 -14 511.99951 511" width="511pt" xmlns="http://www.w3.org/2000/svg"><path d="m455.625 112.273438c-4.144531 0-7.5 3.359374-7.5 7.5v10.84375c0 4.144531 3.355469 7.5 7.5 7.5 4.140625 0 7.496094-3.355469 7.496094-7.5v-10.84375c0-4.140626-3.355469-7.5-7.496094-7.5zm0 0"/><path d="m344.070312 112.273438c-4.140624 0-7.5 3.359374-7.5 7.5v10.84375c0 4.144531 3.359376 7.5 7.5 7.5 4.140626 0 7.5-3.355469 7.5-7.5v-10.84375c0-4.140626-3.359374-7.5-7.5-7.5zm0 0"/><path d="m414.757812 135.886719c-3.117187-2.726563-7.855468-2.410157-10.582031.707031-1.027343 1.175781-2.605469 1.851562-4.328125 1.851562s-3.300781-.675781-4.332031-1.851562c-2.726563-3.117188-7.460937-3.433594-10.582031-.710938-3.117188 2.730469-3.4375 7.464844-.710938 10.585938 3.878906 4.433594 9.574219 6.976562 15.625 6.976562 6.050782 0 11.746094-2.542968 15.621094-6.976562 2.726562-3.121094 2.410156-7.855469-.710938-10.582031zm0 0"/><path d="m56.351562 367.171875c-4.140624 0-7.5 3.359375-7.5 7.5v10.847656c0 4.140625 3.359376 7.496094 7.5 7.496094 4.140626 0 7.5-3.355469 7.5-7.496094v-10.847656c0-4.140625-3.359374-7.5-7.5-7.5zm0 0"/><path d="m167.902344 393.015625c4.144531 0 7.5-3.355469 7.5-7.496094v-10.847656c0-4.140625-3.355469-7.5-7.5-7.5-4.140625 0-7.496094 3.359375-7.496094 7.5v10.847656c0 4.140625 3.355469 7.496094 7.496094 7.496094zm0 0"/><path d="m127.039062 390.785156c-3.117187-2.726562-7.855468-2.40625-10.582031.710938-1.027343 1.175781-2.605469 1.851562-4.328125 1.851562-1.726562 0-3.304687-.675781-4.332031-1.851562-2.726563-3.117188-7.460937-3.4375-10.582031-.710938-3.117188 2.726563-3.4375 7.464844-.710938 10.582032 3.875 4.4375 9.570313 6.980468 15.625 6.980468 6.050782 0 11.746094-2.542968 15.621094-6.980468 2.726562-3.117188 2.410156-7.855469-.710938-10.582032zm0 0"/><path d="m.0703125 434.257812c0 20.988282 15.7304685 38.5625 36.5898435 40.882813l49.039063 5.457031c8.476562 2.09375 17.324219 3.210938 26.429687 3.210938 9.101563 0 17.949219-1.117188 26.425782-3.210938l49.039062-5.457031c13.320312-1.480469 24.539062-9.1875 30.914062-20.023437 15.027344 3.214843 30.417969 4.847656 45.839844 4.847656 57.730469 0 112.671875-22.972656 153.160156-62.84375.246094-.214844.480469-.453125.699219-.707032 9.019531-8.960937 17.316407-18.757812 24.75-29.335937 2.382813-3.390625 1.566407-8.066406-1.824219-10.449219-3.390624-2.378906-8.066406-1.5625-10.449218 1.828125-5.84375 8.316407-12.261719 16.113281-19.167969 23.363281-17.390625-11.199218-36.074219-20.25-55.71875-27.054687 14.550781-32.605469 22.625-68.636719 23.59375-105.449219h87.957031c-1.058594 29.78125-8.429687 58.273438-21.976562 84.789063-1.886719 3.691406-.421875 8.207031 3.265625 10.09375 1.09375.558593 2.257812.820312 3.40625.820312 2.726562 0 5.359375-1.492187 6.683593-4.085937 15.773438-30.871094 23.769532-64.21875 23.769532-99.113282 0-15.203124-1.589844-30.351562-4.691406-45.113281 20.941406-20.65625 34.023437-49.53125 34.167968-81.464843.011719-.179688.027344-.355469.027344-.539063 0-.191406-.007812-.382813-.023438-.570313-.304687-62.707031-50.484374-113.632812-112.125-113.632812-29.734374 0-56.800781 11.851562-76.890624 31.15625-19.03125-5.296875-38.726563-7.984375-58.613282-7.984375-30.371094 0-59.785156 6.140625-87.429687 18.246094-3.792969 1.664062-5.523438 6.085937-3.863281 9.878906 1.664062 3.792969 6.085937 5.523437 9.878906 3.859375 18.101562-7.925781 37.019531-13.09375 56.492187-15.464844-24.015625 19.875-44.386719 45.199219-59.636719 74.421875-.109374.21875-.21875.4375-.332031.65625-18.023437-6.105469-35.195312-14.195312-51.230469-24.199219 9.105469-8.230468 18.945313-15.660156 29.417969-22.136718 3.523438-2.179688 4.613281-6.800782 2.433594-10.324219s-6.800781-4.609375-10.324219-2.433594c-13.929687 8.617188-26.824218 18.792969-38.449218 30.246094-.335938.285156-.652344.597656-.941407.945313-13.890625 13.847656-25.945312 29.53125-35.683593 46.621093-18.628907 32.695313-28.476563 69.980469-28.480469 107.839844 0 11.226563.867187 22.480469 2.570312 33.527344-5.128906 3.585937-9.992187 7.625-14.546875 12.105469-20.917968 20.582031-33.042968 48.1875-34.144531 77.738281-.1054688 2.804687-.1015625 5.609375-.0039062 8.414062v60.644531zm38.2460935 25.976563c-13.25-1.476563-23.246094-12.644531-23.246094-25.976563v-7.511718c7.605469 13.347656 17.789063 24.996094 29.855469 34.222656zm50.035156 5.566406c-13.972656-3.589843-27.097656-10.453125-38.09375-19.785156-20.835937-17.683594-34.179687-43.96875-35.191406-72.804687-.015625-.40625-.035156-.808594-.042968-1.214844.398437-.066406.789062-.152344 1.1875-.226563 10.671874-1.957031 21.046874-5.386719 30.929687-9.84375 11.976563-5.398437 23.253906-12.152343 33.949219-19.769531 10.5-7.476562 20.4375-15.832031 29.621094-24.878906.496093-.488282.96875-.957032 1.417968-1.402344.445313.445312.917969.917969 1.414063 1.402344 9.894531 9.726562 20.601562 18.621094 31.988281 26.550781 11.183594 7.792969 23.09375 14.652344 35.695312 19.871094 8.996094 3.726562 18.378907 6.628906 27.980469 8.292969-.003906.550781-.011719.996093-.019531 1.238281-1.011719 28.816406-14.351562 55.101562-35.183594 72.777343-10.992187 9.332032-24.140625 16.191407-38.105468 19.792969-15.519532 4.003907-32.023438 4.003907-47.546876 0zm101.679688-178.34375c-7.394531-7.277343-15.621094-13.398437-24.445312-18.28125-.664063-6.566406-1.089844-13.210937-1.273438-19.859375h92.535156v90.433594c-11.984375.3125-23.925781 1.375-35.664062 3.167969-.78125-3.339844-1.707032-6.636719-2.777344-9.878907-1.695312-5.121093-3.753906-10.125-6.15625-14.960937-5.597656-11.265625-13.066406-21.617187-22.21875-30.621094zm173.792969-64.597656c.265625 3.800781.449219 7.628906.554687 11.457031h-92.53125v-90.425781c6.453125-.167969 12.898438-.554687 19.289063-1.152344 3.21875 12.9375 8.609375 25.007813 15.753906 35.769531 13.574219 20.445313 33.71875 36.308594 56.933594 44.351563zm-73.148438-134.265625c-2.945312 12.859375-3.695312 26.226562-2.203125 39.332031-5.511718.488281-11.066406.808594-16.625.960938v-83.359375c9.015625 6.746094 17.5625 14.320312 25.558594 22.632812-2.878906 6.5625-5.121094 13.402344-6.730469 20.433594zm-33.828125 145.722656h-92.53125c.996094-35.707031 9.078125-70.113281 23.0625-100.886718 22.238282 6.316406 45.546875 9.847656 69.46875 10.457031zm-32.664062 139.28125c0-5.320312.007812-10.578125-.527344-15.882812 10.925781-1.660156 22.039062-2.652344 33.191406-2.957032v83.355469c-11.746094-8.789062-22.6875-18.960937-32.664062-30.378906zm47.664062-18.847656c21.578125.582031 42.613282 3.667969 62.726563 9.148438-15.644531 29.4375-36.941407 54.9375-62.726563 74.222656zm-85.910156 105.484375-6.605469.734375c12.0625-9.226562 22.246094-20.875 29.851563-34.222656v7.511718c0 3.195313-.605469 6.484376-1.785156 9.5-.003907.019532-.011719.039063-.015626.058594-3.453124 8.792969-11.539062 15.316406-21.445312 16.417969zm37.777344-19.761719c.3125-2.054687.46875-4.136718.46875-6.214844v-4.609374c4.882812 4.851562 9.945312 9.445312 15.179687 13.777343-5.273437-.648437-10.515625-1.496093-15.710937-2.550781.023437-.132812.042968-.269531.0625-.402344zm176.738281-47.914062c-30.855469 27.820312-69.660156 45.703125-111.140625 50.855468 24-19.871093 44.355469-45.183593 59.597656-74.390624.113282-.214844.21875-.4375.332032-.652344 18.019531 6.101562 35.183593 14.191406 51.210937 24.1875zm-59.132813-42.355469c-22.238281-6.316406-45.546874-9.84375-69.472656-10.457031v-90.429688h92.539063c-.996094 35.710938-9.078125 70.117188-23.066407 100.886719zm123.355469-142.316406c1.460938 8.714843 2.351563 17.554687 2.675781 26.433593h-87.96875c-.0625-2.464843-.164062-4.925781-.289062-7.382812 6.730469 1.289062 13.664062 1.96875 20.757812 1.96875 23.132813 0 46.078126-7.472656 64.824219-21.019531zm-20.328125-5.023438c-12.40625 6.550781-26.261718 10.34375-40.28125 10.941407-20.046875.855468-40.277344-4.6875-56.972656-15.847657-26.597656-17.777343-43.292969-48.054687-44.320312-80-.011719-.410156-.039063-1.609375-.039063-1.792969.277344-.667968.558594-1.332031.847656-1.996093 4.792969-10.953125 11.128907-21.660157 20.1875-29.628907 8.425781-7.410156 19.15625-11.558593 30.390625-11.558593 20.859375 0 39.359375 12.753906 41.085938 13.980469 2.691406 1.90625 6.34375 2.105468 9.058594.109374.171874-.125 15.640624-11.332031 34.542968-13.660156 21.820313-2.691406 39.425782 9.421875 50.425782 27.480469 2.835937 4.65625 5.265624 9.554687 7.394531 14.570313.101562.234374.199219.480468.300781.71875-.542969 37.707031-21.789062 70.382812-52.621094 86.683593zm45.359375-125.824219c-.199219-.207031-.414062-.40625-.617187-.609374-7.59375-7.601563-16.824219-13.359376-27.195313-16.285157-7.917969-2.234375-16.300781-2.621093-24.445312-1.671875-16.671875 1.949219-30.738281 9.355469-37.597657 13.574219-7.949218-4.886719-25.554687-14.066406-45.691406-14.066406-14.515625 0-28.296875 5.140625-39.335937 14.546875-1.457031 1.242187-4.632813 4.304687-4.839844 4.515625 14.550781-36.078125 49.351563-61.542969 89.867187-61.542969 40.511719 0 75.308594 25.460938 89.855469 61.539062zm-184.980469-22.816406c-4.957031-4.9375-10.097656-9.613281-15.417968-14.015625 7.511718.921875 14.957031 2.25 22.308594 4.003907-2.488282 3.21875-4.773438 6.570312-6.890626 10.011718zm-47.878906-8.707031v83.367187c-21.574218-.582031-42.605468-3.664062-62.722656-9.148437 15.644531-29.433594 36.941406-54.933594 62.722656-74.21875zm-169.136718 95.898437c8.183593-14.359374 18.121093-27.65625 29.484374-39.589843 17.386719 11.195312 36.070313 20.246093 55.707032 27.050781-14.546875 32.605469-22.621094 68.632812-23.589844 105.445312h-87.960938c1.203126-32.660156 10.25-64.632812 26.359376-92.90625zm-26.359376 107.902344h87.960938c.109375 4.25.3125 8.496094.609375 12.726563-11.984375-4.363281-24.730469-6.644531-37.792969-6.644531-.019531 0-.035156 0-.050781 0-4.273437.003906-8.511719.316406-12.785156.746093-12.792969 1.480469-25.125 5.164063-36.542969 10.875-.722656-5.863281-1.179688-11.777343-1.398438-17.703125zm-16.609374 48.835938c17.773437-17.488282 42.429687-27.742188 67.386718-27.753906 18.640625-.007813 37.191406 5.574218 52.734375 15.867187 23.347657 15.457031 39.414063 41.203125 43.359375 68.902344.058594.398437.191406 1.332031.203125 1.398437-.171875-.035156-1.179687-.25-1.515625-.328125-14.382812-3.238281-27.976562-9.394531-40.601562-16.929687-16.175782-9.65625-31.222656-21.519532-44.445313-34.9375-2.644531-2.6875-5.472656-6.835938-9.734375-6.839844-4.253906-.003906-6.660156 3.726562-9.347656 6.453125-13.101562 13.292969-27.988281 25.144531-43.964844 34.796875-12.199218 7.375-25.324218 13.488281-39.203125 16.921875-.984375.242187-3.605469.824219-3.789062.863281 2.84375-22.203125 12.925781-42.679687 28.917969-58.414062zm0 0"/></svg>